<mxfile host="app.diagrams.net" modified="2022-06-07T08:18:28.425Z" agent="5.0 (Windows NT 10.0; Win64; x64) AppleWebKit/537.36 (KHTML, like Gecko) Chrome/100.0.4896.88 Safari/537.36" etag="1w9GiLxZ3giWGYo3YWKM" version="19.0.1" type="github" pages="2">
  <diagram id="-4Ch9u-QG_riHgV9m6Q4" name="Page-1">
    <mxGraphModel dx="2391" dy="669" grid="1" gridSize="10" guides="1" tooltips="1" connect="1" arrows="1" fold="1" page="1" pageScale="1" pageWidth="850" pageHeight="1100" math="0" shadow="0">
      <root>
        <mxCell id="0" />
        <mxCell id="1" parent="0" />
        <mxCell id="nLTq_c6TepUbZyyU9ZvA-29" value="" style="edgeStyle=none;rounded=0;orthogonalLoop=1;jettySize=auto;html=1;exitX=0.5;exitY=1;exitDx=0;exitDy=0;entryX=0.5;entryY=0;entryDx=0;entryDy=0;" edge="1" parent="1" source="6nwtj63PPCi96lwORrAe-1" target="nLTq_c6TepUbZyyU9ZvA-28">
          <mxGeometry relative="1" as="geometry">
            <mxPoint x="680" y="220" as="targetPoint" />
            <Array as="points">
              <mxPoint x="920" y="200" />
              <mxPoint x="1500" y="200" />
            </Array>
          </mxGeometry>
        </mxCell>
        <mxCell id="nLTq_c6TepUbZyyU9ZvA-31" value="" style="edgeStyle=none;rounded=0;orthogonalLoop=1;jettySize=auto;html=1;entryX=0.5;entryY=0;entryDx=0;entryDy=0;" edge="1" parent="1" target="nLTq_c6TepUbZyyU9ZvA-30">
          <mxGeometry relative="1" as="geometry">
            <mxPoint x="920" y="200" as="sourcePoint" />
            <Array as="points">
              <mxPoint x="300" y="200" />
            </Array>
          </mxGeometry>
        </mxCell>
        <mxCell id="6nwtj63PPCi96lwORrAe-1" value="&lt;b&gt;ICSP Dashboard&lt;br&gt;&lt;/b&gt;(krFnolSearchDashboard)" style="rounded=0;whiteSpace=wrap;html=1;" parent="1" vertex="1">
          <mxGeometry x="820" y="140" width="200" height="40" as="geometry" />
        </mxCell>
        <mxCell id="nLTq_c6TepUbZyyU9ZvA-28" value="&lt;b&gt;Admin Fnol Rearrangement&lt;br&gt;&lt;/b&gt;" style="rounded=0;whiteSpace=wrap;html=1;" vertex="1" parent="1">
          <mxGeometry x="1440" y="359" width="120" height="50" as="geometry" />
        </mxCell>
        <mxCell id="nLTq_c6TepUbZyyU9ZvA-76" value="" style="edgeStyle=none;rounded=0;orthogonalLoop=1;jettySize=auto;html=1;" edge="1" parent="1" source="nLTq_c6TepUbZyyU9ZvA-30" target="nLTq_c6TepUbZyyU9ZvA-68">
          <mxGeometry relative="1" as="geometry" />
        </mxCell>
        <mxCell id="nLTq_c6TepUbZyyU9ZvA-30" value="&lt;b&gt;Fnol Search&lt;/b&gt;" style="rounded=0;whiteSpace=wrap;html=1;" vertex="1" parent="1">
          <mxGeometry x="240" y="220" width="120" height="50" as="geometry" />
        </mxCell>
        <mxCell id="nLTq_c6TepUbZyyU9ZvA-48" value="&lt;font style=&quot;font-size: 14px;&quot;&gt;https://kr.studio.chubb.com/myaccount/kr/default/default/icsp/ko-KR/&lt;/font&gt;" style="text;html=1;resizable=0;autosize=1;align=center;verticalAlign=middle;points=[];fillColor=none;strokeColor=none;rounded=0;fontStyle=1" vertex="1" parent="1">
          <mxGeometry x="690" y="90" width="470" height="20" as="geometry" />
        </mxCell>
        <mxCell id="nLTq_c6TepUbZyyU9ZvA-58" style="edgeStyle=none;rounded=0;orthogonalLoop=1;jettySize=auto;html=1;exitX=0.75;exitY=1;exitDx=0;exitDy=0;" edge="1" parent="1" source="nLTq_c6TepUbZyyU9ZvA-30" target="nLTq_c6TepUbZyyU9ZvA-30">
          <mxGeometry relative="1" as="geometry" />
        </mxCell>
        <mxCell id="nLTq_c6TepUbZyyU9ZvA-59" style="edgeStyle=none;rounded=0;orthogonalLoop=1;jettySize=auto;html=1;exitX=0.5;exitY=1;exitDx=0;exitDy=0;" edge="1" parent="1" source="nLTq_c6TepUbZyyU9ZvA-30" target="nLTq_c6TepUbZyyU9ZvA-30">
          <mxGeometry relative="1" as="geometry" />
        </mxCell>
        <mxCell id="nLTq_c6TepUbZyyU9ZvA-79" value="" style="edgeStyle=none;rounded=0;orthogonalLoop=1;jettySize=auto;html=1;" edge="1" parent="1" source="nLTq_c6TepUbZyyU9ZvA-68" target="nLTq_c6TepUbZyyU9ZvA-77">
          <mxGeometry relative="1" as="geometry" />
        </mxCell>
        <mxCell id="nLTq_c6TepUbZyyU9ZvA-68" value="&lt;b&gt;Fnol search Form&lt;br&gt;&lt;/b&gt;(krFnolSearch)" style="rounded=0;whiteSpace=wrap;html=1;" vertex="1" parent="1">
          <mxGeometry x="240" y="320" width="120" height="60" as="geometry" />
        </mxCell>
        <mxCell id="rxju3QpqZqfiqWb5X_6u-2" style="edgeStyle=none;rounded=0;orthogonalLoop=1;jettySize=auto;html=1;exitX=0.5;exitY=1;exitDx=0;exitDy=0;entryX=0.5;entryY=0;entryDx=0;entryDy=0;" edge="1" parent="1" source="nLTq_c6TepUbZyyU9ZvA-77" target="nLTq_c6TepUbZyyU9ZvA-104">
          <mxGeometry relative="1" as="geometry">
            <mxPoint x="210" y="520" as="targetPoint" />
          </mxGeometry>
        </mxCell>
        <mxCell id="rxju3QpqZqfiqWb5X_6u-6" style="edgeStyle=none;rounded=0;orthogonalLoop=1;jettySize=auto;html=1;exitX=0.5;exitY=1;exitDx=0;exitDy=0;entryX=0.5;entryY=0;entryDx=0;entryDy=0;" edge="1" parent="1" source="nLTq_c6TepUbZyyU9ZvA-77" target="nLTq_c6TepUbZyyU9ZvA-106">
          <mxGeometry relative="1" as="geometry" />
        </mxCell>
        <mxCell id="rxju3QpqZqfiqWb5X_6u-7" style="edgeStyle=none;rounded=0;orthogonalLoop=1;jettySize=auto;html=1;exitX=0.5;exitY=1;exitDx=0;exitDy=0;entryX=0.5;entryY=0;entryDx=0;entryDy=0;" edge="1" parent="1" source="nLTq_c6TepUbZyyU9ZvA-77" target="nLTq_c6TepUbZyyU9ZvA-105">
          <mxGeometry relative="1" as="geometry" />
        </mxCell>
        <mxCell id="nLTq_c6TepUbZyyU9ZvA-77" value="&lt;b&gt;Pending Fnols&lt;br&gt;&lt;/b&gt;(krFnolSelector)" style="rounded=0;whiteSpace=wrap;html=1;" vertex="1" parent="1">
          <mxGeometry x="240" y="430" width="120" height="60" as="geometry" />
        </mxCell>
        <mxCell id="nLTq_c6TepUbZyyU9ZvA-90" value="" style="endArrow=classic;html=1;rounded=0;exitX=0;exitY=0.5;exitDx=0;exitDy=0;entryX=0.5;entryY=0;entryDx=0;entryDy=0;" edge="1" parent="1" source="nLTq_c6TepUbZyyU9ZvA-68" target="rxju3QpqZqfiqWb5X_6u-33">
          <mxGeometry width="50" height="50" relative="1" as="geometry">
            <mxPoint x="440" y="450" as="sourcePoint" />
            <mxPoint x="110" y="400" as="targetPoint" />
            <Array as="points">
              <mxPoint x="125" y="350" />
            </Array>
          </mxGeometry>
        </mxCell>
        <mxCell id="nLTq_c6TepUbZyyU9ZvA-91" value="" style="endArrow=classic;html=1;rounded=0;entryX=0;entryY=0.5;entryDx=0;entryDy=0;exitX=0.5;exitY=1;exitDx=0;exitDy=0;" edge="1" parent="1" source="rxju3QpqZqfiqWb5X_6u-33" target="nLTq_c6TepUbZyyU9ZvA-77">
          <mxGeometry width="50" height="50" relative="1" as="geometry">
            <mxPoint x="110.99999999999977" y="442.0000000000001" as="sourcePoint" />
            <mxPoint x="490" y="400" as="targetPoint" />
            <Array as="points">
              <mxPoint x="125" y="460" />
            </Array>
          </mxGeometry>
        </mxCell>
        <mxCell id="nLTq_c6TepUbZyyU9ZvA-104" value="Export Excel" style="rounded=1;whiteSpace=wrap;html=1;arcSize=22;" vertex="1" parent="1">
          <mxGeometry x="160" y="520" width="80" height="40" as="geometry" />
        </mxCell>
        <mxCell id="rxju3QpqZqfiqWb5X_6u-108" value="" style="edgeStyle=none;rounded=0;orthogonalLoop=1;jettySize=auto;html=1;" edge="1" parent="1" source="nLTq_c6TepUbZyyU9ZvA-105" target="rxju3QpqZqfiqWb5X_6u-53">
          <mxGeometry relative="1" as="geometry" />
        </mxCell>
        <mxCell id="nLTq_c6TepUbZyyU9ZvA-105" value="Submit" style="rounded=1;whiteSpace=wrap;html=1;arcSize=22;" vertex="1" parent="1">
          <mxGeometry x="259" y="520" width="80" height="40" as="geometry" />
        </mxCell>
        <mxCell id="rxju3QpqZqfiqWb5X_6u-8" value="" style="edgeStyle=none;rounded=0;orthogonalLoop=1;jettySize=auto;html=1;" edge="1" parent="1" source="nLTq_c6TepUbZyyU9ZvA-106" target="nLTq_c6TepUbZyyU9ZvA-107">
          <mxGeometry relative="1" as="geometry" />
        </mxCell>
        <mxCell id="nLTq_c6TepUbZyyU9ZvA-106" value="Delete" style="rounded=1;whiteSpace=wrap;html=1;arcSize=22;" vertex="1" parent="1">
          <mxGeometry x="360" y="520" width="80" height="40" as="geometry" />
        </mxCell>
        <mxCell id="rxju3QpqZqfiqWb5X_6u-11" style="edgeStyle=none;rounded=0;orthogonalLoop=1;jettySize=auto;html=1;exitX=1;exitY=0.5;exitDx=0;exitDy=0;entryX=0.5;entryY=1;entryDx=0;entryDy=0;" edge="1" parent="1" source="nLTq_c6TepUbZyyU9ZvA-107" target="rxju3QpqZqfiqWb5X_6u-47">
          <mxGeometry relative="1" as="geometry">
            <mxPoint x="600.0000000000002" y="448" as="targetPoint" />
            <Array as="points">
              <mxPoint x="660" y="540" />
            </Array>
          </mxGeometry>
        </mxCell>
        <mxCell id="rxju3QpqZqfiqWb5X_6u-13" style="edgeStyle=none;rounded=0;orthogonalLoop=1;jettySize=auto;html=1;exitX=0.5;exitY=0;exitDx=0;exitDy=0;entryX=1;entryY=0.5;entryDx=0;entryDy=0;" edge="1" parent="1" source="nLTq_c6TepUbZyyU9ZvA-107" target="nLTq_c6TepUbZyyU9ZvA-77">
          <mxGeometry relative="1" as="geometry">
            <Array as="points">
              <mxPoint x="520" y="460" />
            </Array>
          </mxGeometry>
        </mxCell>
        <mxCell id="nLTq_c6TepUbZyyU9ZvA-107" value="Delete&lt;br&gt;&amp;nbsp;Dialog" style="rhombus;whiteSpace=wrap;html=1;" vertex="1" parent="1">
          <mxGeometry x="480" y="515" width="80" height="50" as="geometry" />
        </mxCell>
        <mxCell id="rxju3QpqZqfiqWb5X_6u-3" style="edgeStyle=none;rounded=0;orthogonalLoop=1;jettySize=auto;html=1;exitX=0.75;exitY=1;exitDx=0;exitDy=0;" edge="1" parent="1" source="nLTq_c6TepUbZyyU9ZvA-104" target="nLTq_c6TepUbZyyU9ZvA-104">
          <mxGeometry relative="1" as="geometry" />
        </mxCell>
        <mxCell id="rxju3QpqZqfiqWb5X_6u-12" style="edgeStyle=none;rounded=0;orthogonalLoop=1;jettySize=auto;html=1;exitX=0.5;exitY=0;exitDx=0;exitDy=0;entryX=1;entryY=0.5;entryDx=0;entryDy=0;" edge="1" parent="1" source="rxju3QpqZqfiqWb5X_6u-47" target="nLTq_c6TepUbZyyU9ZvA-68">
          <mxGeometry relative="1" as="geometry">
            <mxPoint x="600.0000000000002" y="420" as="sourcePoint" />
            <Array as="points">
              <mxPoint x="660" y="350" />
            </Array>
          </mxGeometry>
        </mxCell>
        <mxCell id="rxju3QpqZqfiqWb5X_6u-109" value="" style="edgeStyle=none;rounded=0;orthogonalLoop=1;jettySize=auto;html=1;" edge="1" parent="1" source="rxju3QpqZqfiqWb5X_6u-14" target="rxju3QpqZqfiqWb5X_6u-80">
          <mxGeometry relative="1" as="geometry" />
        </mxCell>
        <mxCell id="rxju3QpqZqfiqWb5X_6u-14" value="" style="rounded=0;whiteSpace=wrap;html=1;" vertex="1" parent="1">
          <mxGeometry x="190" y="680" width="220" height="340" as="geometry" />
        </mxCell>
        <mxCell id="rxju3QpqZqfiqWb5X_6u-17" value="Claim Information" style="rounded=0;whiteSpace=wrap;html=1;" vertex="1" parent="1">
          <mxGeometry x="219.5" y="710" width="161" height="40" as="geometry" />
        </mxCell>
        <mxCell id="rxju3QpqZqfiqWb5X_6u-18" value="Treatment Information" style="rounded=0;whiteSpace=wrap;html=1;" vertex="1" parent="1">
          <mxGeometry x="219.5" y="790" width="161" height="40" as="geometry" />
        </mxCell>
        <mxCell id="rxju3QpqZqfiqWb5X_6u-97" value="" style="edgeStyle=none;rounded=0;orthogonalLoop=1;jettySize=auto;html=1;" edge="1" parent="1" source="rxju3QpqZqfiqWb5X_6u-20">
          <mxGeometry relative="1" as="geometry">
            <mxPoint x="130" y="888" as="targetPoint" />
          </mxGeometry>
        </mxCell>
        <mxCell id="rxju3QpqZqfiqWb5X_6u-20" value="Payment Information" style="rounded=0;whiteSpace=wrap;html=1;" vertex="1" parent="1">
          <mxGeometry x="220" y="868" width="159.5" height="40" as="geometry" />
        </mxCell>
        <mxCell id="rxju3QpqZqfiqWb5X_6u-21" value="Review and Confirm" style="rounded=0;whiteSpace=wrap;html=1;" vertex="1" parent="1">
          <mxGeometry x="219.5" y="948" width="161" height="40" as="geometry" />
        </mxCell>
        <mxCell id="rxju3QpqZqfiqWb5X_6u-41" value="" style="group" vertex="1" connectable="0" parent="1">
          <mxGeometry x="60" y="400" width="130" height="35" as="geometry" />
        </mxCell>
        <mxCell id="rxju3QpqZqfiqWb5X_6u-33" value="&amp;nbsp; &amp;nbsp; &amp;nbsp; &amp;nbsp; &amp;nbsp; Search API" style="shape=parallelogram;perimeter=parallelogramPerimeter;whiteSpace=wrap;html=1;fixedSize=1;" vertex="1" parent="rxju3QpqZqfiqWb5X_6u-41">
          <mxGeometry width="130" height="35" as="geometry" />
        </mxCell>
        <mxCell id="rxju3QpqZqfiqWb5X_6u-35" value="" style="shape=image;html=1;verticalAlign=top;verticalLabelPosition=bottom;labelBackgroundColor=#ffffff;imageAspect=0;aspect=fixed;image=https://cdn1.iconfinder.com/data/icons/seo-and-web-development-6/32/development_setting_gear_cogwheel-71-128.png" vertex="1" parent="rxju3QpqZqfiqWb5X_6u-41">
          <mxGeometry x="24.5" y="7.25" width="21.5" height="21.5" as="geometry" />
        </mxCell>
        <mxCell id="rxju3QpqZqfiqWb5X_6u-47" value="&amp;nbsp; &amp;nbsp; &amp;nbsp; &amp;nbsp; &amp;nbsp; DELETE {FNOL ID} API" style="shape=parallelogram;perimeter=parallelogramPerimeter;whiteSpace=wrap;html=1;fixedSize=1;" vertex="1" parent="1">
          <mxGeometry x="560" y="420" width="200" height="35" as="geometry" />
        </mxCell>
        <mxCell id="rxju3QpqZqfiqWb5X_6u-48" value="" style="shape=image;html=1;verticalAlign=top;verticalLabelPosition=bottom;labelBackgroundColor=#ffffff;imageAspect=0;aspect=fixed;image=https://cdn1.iconfinder.com/data/icons/seo-and-web-development-6/32/development_setting_gear_cogwheel-71-128.png" vertex="1" parent="1">
          <mxGeometry x="584.5" y="427.25" width="21.5" height="21.5" as="geometry" />
        </mxCell>
        <mxCell id="rxju3QpqZqfiqWb5X_6u-49" value="Yes" style="text;html=1;resizable=0;autosize=1;align=center;verticalAlign=middle;points=[];fillColor=none;strokeColor=none;rounded=0;" vertex="1" parent="1">
          <mxGeometry x="560" y="520" width="30" height="20" as="geometry" />
        </mxCell>
        <mxCell id="rxju3QpqZqfiqWb5X_6u-50" value="No" style="text;html=1;resizable=0;autosize=1;align=center;verticalAlign=middle;points=[];fillColor=none;strokeColor=none;rounded=0;" vertex="1" parent="1">
          <mxGeometry x="490" y="495" width="30" height="20" as="geometry" />
        </mxCell>
        <mxCell id="rxju3QpqZqfiqWb5X_6u-52" value="Clear Fnol Search result" style="text;html=1;resizable=0;autosize=1;align=center;verticalAlign=middle;points=[];fillColor=none;strokeColor=none;rounded=0;" vertex="1" parent="1">
          <mxGeometry x="390" y="330" width="140" height="20" as="geometry" />
        </mxCell>
        <mxCell id="rxju3QpqZqfiqWb5X_6u-107" value="" style="edgeStyle=none;rounded=0;orthogonalLoop=1;jettySize=auto;html=1;" edge="1" parent="1" source="rxju3QpqZqfiqWb5X_6u-53" target="rxju3QpqZqfiqWb5X_6u-17">
          <mxGeometry relative="1" as="geometry" />
        </mxCell>
        <mxCell id="rxju3QpqZqfiqWb5X_6u-53" value="&amp;nbsp; &amp;nbsp; &amp;nbsp; &amp;nbsp; GET {FNOL ID} API" style="shape=parallelogram;perimeter=parallelogramPerimeter;whiteSpace=wrap;html=1;fixedSize=1;" vertex="1" parent="1">
          <mxGeometry x="197.5" y="580" width="205" height="38" as="geometry" />
        </mxCell>
        <mxCell id="rxju3QpqZqfiqWb5X_6u-54" value="" style="shape=image;html=1;verticalAlign=top;verticalLabelPosition=bottom;labelBackgroundColor=#ffffff;imageAspect=0;aspect=fixed;image=https://cdn1.iconfinder.com/data/icons/seo-and-web-development-6/32/development_setting_gear_cogwheel-71-128.png" vertex="1" parent="1">
          <mxGeometry x="220" y="588.25" width="21.5" height="21.5" as="geometry" />
        </mxCell>
        <mxCell id="rxju3QpqZqfiqWb5X_6u-80" value="&lt;b&gt;Claim submission Confirmation&lt;/b&gt;" style="rounded=0;whiteSpace=wrap;html=1;" vertex="1" parent="1">
          <mxGeometry x="190" y="1120" width="220" height="40" as="geometry" />
        </mxCell>
        <mxCell id="rxju3QpqZqfiqWb5X_6u-84" value="" style="group" vertex="1" connectable="0" parent="1">
          <mxGeometry x="-80" y="790" width="205" height="38" as="geometry" />
        </mxCell>
        <mxCell id="rxju3QpqZqfiqWb5X_6u-55" value="&amp;nbsp; &amp;nbsp; &amp;nbsp; &amp;nbsp; UPDATE {FNOL ID} API" style="shape=parallelogram;perimeter=parallelogramPerimeter;whiteSpace=wrap;html=1;fixedSize=1;" vertex="1" parent="rxju3QpqZqfiqWb5X_6u-84">
          <mxGeometry width="205" height="38" as="geometry" />
        </mxCell>
        <mxCell id="rxju3QpqZqfiqWb5X_6u-56" value="" style="shape=image;html=1;verticalAlign=top;verticalLabelPosition=bottom;labelBackgroundColor=#ffffff;imageAspect=0;aspect=fixed;image=https://cdn1.iconfinder.com/data/icons/seo-and-web-development-6/32/development_setting_gear_cogwheel-71-128.png" vertex="1" parent="rxju3QpqZqfiqWb5X_6u-84">
          <mxGeometry x="24.5" y="10.25" width="21.5" height="21.5" as="geometry" />
        </mxCell>
        <mxCell id="rxju3QpqZqfiqWb5X_6u-96" value="" style="group" vertex="1" connectable="0" parent="1">
          <mxGeometry x="-80" y="870" width="205" height="114" as="geometry" />
        </mxCell>
        <mxCell id="rxju3QpqZqfiqWb5X_6u-85" value="" style="group" vertex="1" connectable="0" parent="rxju3QpqZqfiqWb5X_6u-96">
          <mxGeometry width="205" height="38" as="geometry" />
        </mxCell>
        <mxCell id="rxju3QpqZqfiqWb5X_6u-86" value="&amp;nbsp; &amp;nbsp; &amp;nbsp; &amp;nbsp; UPDATE {FNOL ID} API" style="shape=parallelogram;perimeter=parallelogramPerimeter;whiteSpace=wrap;html=1;fixedSize=1;" vertex="1" parent="rxju3QpqZqfiqWb5X_6u-85">
          <mxGeometry width="205" height="38" as="geometry" />
        </mxCell>
        <mxCell id="rxju3QpqZqfiqWb5X_6u-87" value="" style="shape=image;html=1;verticalAlign=top;verticalLabelPosition=bottom;labelBackgroundColor=#ffffff;imageAspect=0;aspect=fixed;image=https://cdn1.iconfinder.com/data/icons/seo-and-web-development-6/32/development_setting_gear_cogwheel-71-128.png" vertex="1" parent="rxju3QpqZqfiqWb5X_6u-85">
          <mxGeometry x="24.5" y="10.25" width="21.5" height="21.5" as="geometry" />
        </mxCell>
        <mxCell id="rxju3QpqZqfiqWb5X_6u-88" value="" style="group" vertex="1" connectable="0" parent="rxju3QpqZqfiqWb5X_6u-96">
          <mxGeometry y="38" width="205" height="38" as="geometry" />
        </mxCell>
        <mxCell id="rxju3QpqZqfiqWb5X_6u-89" value="BANK INFO CHECK&lt;br&gt;&amp;nbsp;{FNOL ID} API" style="shape=parallelogram;perimeter=parallelogramPerimeter;whiteSpace=wrap;html=1;fixedSize=1;" vertex="1" parent="rxju3QpqZqfiqWb5X_6u-88">
          <mxGeometry width="205" height="38" as="geometry" />
        </mxCell>
        <mxCell id="rxju3QpqZqfiqWb5X_6u-91" value="&amp;nbsp; &amp;nbsp; EFT SUBMISSION API" style="shape=parallelogram;perimeter=parallelogramPerimeter;whiteSpace=wrap;html=1;fixedSize=1;" vertex="1" parent="rxju3QpqZqfiqWb5X_6u-96">
          <mxGeometry y="76" width="205" height="38" as="geometry" />
        </mxCell>
        <mxCell id="rxju3QpqZqfiqWb5X_6u-98" value="" style="endArrow=classic;html=1;rounded=0;entryX=0;entryY=0.5;entryDx=0;entryDy=0;" edge="1" parent="1">
          <mxGeometry width="50" height="50" relative="1" as="geometry">
            <mxPoint x="123" y="968" as="sourcePoint" />
            <mxPoint x="212.5" y="967.9999999999998" as="targetPoint" />
          </mxGeometry>
        </mxCell>
        <mxCell id="rxju3QpqZqfiqWb5X_6u-99" value="" style="edgeStyle=none;rounded=0;orthogonalLoop=1;jettySize=auto;html=1;" edge="1" parent="1">
          <mxGeometry relative="1" as="geometry">
            <mxPoint x="219" y="808.4099999999997" as="sourcePoint" />
            <mxPoint x="129" y="808.4099999999997" as="targetPoint" />
          </mxGeometry>
        </mxCell>
        <mxCell id="rxju3QpqZqfiqWb5X_6u-100" value="" style="endArrow=classic;html=1;rounded=0;exitX=0.5;exitY=1;exitDx=0;exitDy=0;entryX=0.502;entryY=0.05;entryDx=0;entryDy=0;entryPerimeter=0;" edge="1" parent="1" source="rxju3QpqZqfiqWb5X_6u-55" target="rxju3QpqZqfiqWb5X_6u-20">
          <mxGeometry width="50" height="50" relative="1" as="geometry">
            <mxPoint x="300" y="870" as="sourcePoint" />
            <mxPoint x="350" y="820" as="targetPoint" />
            <Array as="points">
              <mxPoint x="23" y="850" />
              <mxPoint x="300" y="850" />
            </Array>
          </mxGeometry>
        </mxCell>
        <mxCell id="rxju3QpqZqfiqWb5X_6u-105" value="" style="endArrow=classic;html=1;rounded=0;exitX=0.5;exitY=1;exitDx=0;exitDy=0;" edge="1" parent="1" source="rxju3QpqZqfiqWb5X_6u-17" target="rxju3QpqZqfiqWb5X_6u-18">
          <mxGeometry width="50" height="50" relative="1" as="geometry">
            <mxPoint x="290" y="750" as="sourcePoint" />
            <mxPoint x="340" y="700" as="targetPoint" />
          </mxGeometry>
        </mxCell>
        <mxCell id="rxju3QpqZqfiqWb5X_6u-110" value="FNOL response to Form&amp;nbsp; Modal Transformation" style="text;html=1;resizable=0;autosize=1;align=center;verticalAlign=middle;points=[];fillColor=#FFFFFF;strokeColor=none;rounded=0;" vertex="1" parent="1">
          <mxGeometry x="164" y="645" width="270" height="20" as="geometry" />
        </mxCell>
        <mxCell id="rxju3QpqZqfiqWb5X_6u-111" value="Updated FNOL Payload" style="text;html=1;resizable=0;autosize=1;align=center;verticalAlign=middle;points=[];fillColor=#FFFFFF;strokeColor=none;rounded=0;" vertex="1" parent="1">
          <mxGeometry x="229.75" y="1051" width="140" height="20" as="geometry" />
        </mxCell>
        <mxCell id="rxju3QpqZqfiqWb5X_6u-135" value="" style="group;fontStyle=1" vertex="1" connectable="0" parent="1">
          <mxGeometry x="479" y="661" width="190" height="140" as="geometry" />
        </mxCell>
        <mxCell id="rxju3QpqZqfiqWb5X_6u-134" value="" style="rounded=0;whiteSpace=wrap;html=1;fontSize=8;fillColor=#FFFFFF;" vertex="1" parent="rxju3QpqZqfiqWb5X_6u-135">
          <mxGeometry width="190" height="140" as="geometry" />
        </mxCell>
        <mxCell id="rxju3QpqZqfiqWb5X_6u-61" value="Insured Detail" style="rounded=0;whiteSpace=wrap;html=1;" vertex="1" parent="rxju3QpqZqfiqWb5X_6u-135">
          <mxGeometry x="11" y="11" width="168" height="23" as="geometry" />
        </mxCell>
        <mxCell id="rxju3QpqZqfiqWb5X_6u-129" value="Cause of Accident" style="rounded=0;whiteSpace=wrap;html=1;" vertex="1" parent="rxju3QpqZqfiqWb5X_6u-135">
          <mxGeometry x="11" y="41" width="168" height="23" as="geometry" />
        </mxCell>
        <mxCell id="rxju3QpqZqfiqWb5X_6u-130" value="Terms and Condition" style="rounded=0;whiteSpace=wrap;html=1;" vertex="1" parent="rxju3QpqZqfiqWb5X_6u-135">
          <mxGeometry x="11" y="72.5" width="168" height="23" as="geometry" />
        </mxCell>
        <mxCell id="rxju3QpqZqfiqWb5X_6u-131" value="&lt;b&gt;Claim Status&lt;/b&gt;" style="rounded=0;whiteSpace=wrap;html=1;" vertex="1" parent="rxju3QpqZqfiqWb5X_6u-135">
          <mxGeometry x="11" y="104" width="168" height="23" as="geometry" />
        </mxCell>
        <mxCell id="rxju3QpqZqfiqWb5X_6u-136" style="edgeStyle=none;rounded=0;orthogonalLoop=1;jettySize=auto;html=1;exitX=0.75;exitY=1;exitDx=0;exitDy=0;fontSize=8;" edge="1" parent="rxju3QpqZqfiqWb5X_6u-135" source="rxju3QpqZqfiqWb5X_6u-134" target="rxju3QpqZqfiqWb5X_6u-134">
          <mxGeometry relative="1" as="geometry" />
        </mxCell>
        <mxCell id="rxju3QpqZqfiqWb5X_6u-145" style="edgeStyle=none;rounded=0;orthogonalLoop=1;jettySize=auto;html=1;exitX=0.75;exitY=1;exitDx=0;exitDy=0;fontSize=8;" edge="1" parent="rxju3QpqZqfiqWb5X_6u-135" source="rxju3QpqZqfiqWb5X_6u-134" target="rxju3QpqZqfiqWb5X_6u-134">
          <mxGeometry relative="1" as="geometry" />
        </mxCell>
        <mxCell id="rxju3QpqZqfiqWb5X_6u-146" value="" style="group" vertex="1" connectable="0" parent="1">
          <mxGeometry x="479" y="827" width="190" height="70" as="geometry" />
        </mxCell>
        <mxCell id="rxju3QpqZqfiqWb5X_6u-138" value="" style="rounded=0;whiteSpace=wrap;html=1;fontSize=8;fillColor=#FFFFFF;" vertex="1" parent="rxju3QpqZqfiqWb5X_6u-146">
          <mxGeometry width="190" height="70" as="geometry" />
        </mxCell>
        <mxCell id="rxju3QpqZqfiqWb5X_6u-139" value="Treatment Detail" style="rounded=0;whiteSpace=wrap;html=1;" vertex="1" parent="rxju3QpqZqfiqWb5X_6u-146">
          <mxGeometry x="11" y="9" width="168" height="23" as="geometry" />
        </mxCell>
        <mxCell id="rxju3QpqZqfiqWb5X_6u-142" value="&lt;b&gt;Claim Status&lt;/b&gt;" style="rounded=0;whiteSpace=wrap;html=1;" vertex="1" parent="rxju3QpqZqfiqWb5X_6u-146">
          <mxGeometry x="11" y="38" width="168" height="23" as="geometry" />
        </mxCell>
        <mxCell id="rxju3QpqZqfiqWb5X_6u-143" style="edgeStyle=none;rounded=0;orthogonalLoop=1;jettySize=auto;html=1;exitX=0.75;exitY=1;exitDx=0;exitDy=0;fontSize=8;" edge="1" parent="rxju3QpqZqfiqWb5X_6u-146" source="rxju3QpqZqfiqWb5X_6u-138" target="rxju3QpqZqfiqWb5X_6u-138">
          <mxGeometry relative="1" as="geometry" />
        </mxCell>
        <mxCell id="rxju3QpqZqfiqWb5X_6u-155" value="" style="group" vertex="1" connectable="0" parent="1">
          <mxGeometry x="479" y="929" width="190" height="110" as="geometry" />
        </mxCell>
        <mxCell id="rxju3QpqZqfiqWb5X_6u-148" value="" style="rounded=0;whiteSpace=wrap;html=1;fontSize=8;fillColor=#FFFFFF;" vertex="1" parent="rxju3QpqZqfiqWb5X_6u-155">
          <mxGeometry width="190" height="110" as="geometry" />
        </mxCell>
        <mxCell id="rxju3QpqZqfiqWb5X_6u-149" value="Existing Bank Info" style="rounded=0;whiteSpace=wrap;html=1;" vertex="1" parent="rxju3QpqZqfiqWb5X_6u-155">
          <mxGeometry x="11" y="11" width="168" height="23" as="geometry" />
        </mxCell>
        <mxCell id="rxju3QpqZqfiqWb5X_6u-150" value="New Bank Info" style="rounded=0;whiteSpace=wrap;html=1;" vertex="1" parent="rxju3QpqZqfiqWb5X_6u-155">
          <mxGeometry x="11" y="41" width="168" height="23" as="geometry" />
        </mxCell>
        <mxCell id="rxju3QpqZqfiqWb5X_6u-151" value="&lt;b&gt;Claim Status&lt;/b&gt;" style="rounded=0;whiteSpace=wrap;html=1;" vertex="1" parent="rxju3QpqZqfiqWb5X_6u-155">
          <mxGeometry x="11" y="72.5" width="168" height="23" as="geometry" />
        </mxCell>
        <mxCell id="rxju3QpqZqfiqWb5X_6u-153" style="edgeStyle=none;rounded=0;orthogonalLoop=1;jettySize=auto;html=1;exitX=0.75;exitY=1;exitDx=0;exitDy=0;fontSize=8;" edge="1" parent="rxju3QpqZqfiqWb5X_6u-155" source="rxju3QpqZqfiqWb5X_6u-148" target="rxju3QpqZqfiqWb5X_6u-148">
          <mxGeometry relative="1" as="geometry" />
        </mxCell>
        <mxCell id="rxju3QpqZqfiqWb5X_6u-154" style="edgeStyle=none;rounded=0;orthogonalLoop=1;jettySize=auto;html=1;exitX=0.75;exitY=1;exitDx=0;exitDy=0;fontSize=8;" edge="1" parent="rxju3QpqZqfiqWb5X_6u-155" source="rxju3QpqZqfiqWb5X_6u-148" target="rxju3QpqZqfiqWb5X_6u-148">
          <mxGeometry relative="1" as="geometry" />
        </mxCell>
        <mxCell id="rxju3QpqZqfiqWb5X_6u-156" value="" style="endArrow=classic;html=1;rounded=0;fontSize=8;exitX=1;exitY=0.5;exitDx=0;exitDy=0;entryX=0;entryY=0.5;entryDx=0;entryDy=0;" edge="1" parent="1" source="rxju3QpqZqfiqWb5X_6u-17" target="rxju3QpqZqfiqWb5X_6u-134">
          <mxGeometry width="50" height="50" relative="1" as="geometry">
            <mxPoint x="540" y="820" as="sourcePoint" />
            <mxPoint x="590" y="770" as="targetPoint" />
          </mxGeometry>
        </mxCell>
        <mxCell id="rxju3QpqZqfiqWb5X_6u-157" value="" style="endArrow=classic;html=1;rounded=0;fontSize=8;exitX=1;exitY=0.5;exitDx=0;exitDy=0;entryX=0;entryY=0.5;entryDx=0;entryDy=0;" edge="1" parent="1" target="rxju3QpqZqfiqWb5X_6u-138">
          <mxGeometry width="50" height="50" relative="1" as="geometry">
            <mxPoint x="380.5" y="809.41" as="sourcePoint" />
            <mxPoint x="478.99999999999955" y="810.41" as="targetPoint" />
            <Array as="points">
              <mxPoint x="440" y="810" />
              <mxPoint x="440" y="862" />
            </Array>
          </mxGeometry>
        </mxCell>
        <mxCell id="rxju3QpqZqfiqWb5X_6u-158" value="" style="endArrow=classic;html=1;rounded=0;fontSize=8;entryX=0;entryY=0.5;entryDx=0;entryDy=0;" edge="1" parent="1">
          <mxGeometry width="50" height="50" relative="1" as="geometry">
            <mxPoint x="380" y="890" as="sourcePoint" />
            <mxPoint x="479.99999999999955" y="984" as="targetPoint" />
            <Array as="points">
              <mxPoint x="440" y="890" />
              <mxPoint x="441" y="984" />
            </Array>
          </mxGeometry>
        </mxCell>
        <mxCell id="rxju3QpqZqfiqWb5X_6u-160" value="&lt;font style=&quot;font-size: 12px;&quot;&gt;Select Claim Status from Dropdown&lt;/font&gt;" style="rounded=0;whiteSpace=wrap;html=1;fontSize=8;fillColor=#FFFFFF;" vertex="1" parent="1">
          <mxGeometry x="760" y="848" width="120" height="62" as="geometry" />
        </mxCell>
        <mxCell id="rxju3QpqZqfiqWb5X_6u-164" value="" style="endArrow=classic;html=1;rounded=0;fontSize=8;entryX=0;entryY=0.5;entryDx=0;entryDy=0;" edge="1" parent="1">
          <mxGeometry width="50" height="50" relative="1" as="geometry">
            <mxPoint x="720" y="877" as="sourcePoint" />
            <mxPoint x="760" y="877" as="targetPoint" />
          </mxGeometry>
        </mxCell>
        <mxCell id="rxju3QpqZqfiqWb5X_6u-165" value="" style="endArrow=none;html=1;rounded=0;fontSize=8;" edge="1" parent="1">
          <mxGeometry width="50" height="50" relative="1" as="geometry">
            <mxPoint x="720" y="1014" as="sourcePoint" />
            <mxPoint x="720" y="780" as="targetPoint" />
          </mxGeometry>
        </mxCell>
        <mxCell id="rxju3QpqZqfiqWb5X_6u-166" value="" style="endArrow=none;html=1;rounded=0;fontSize=8;exitX=1.003;exitY=0.624;exitDx=0;exitDy=0;exitPerimeter=0;" edge="1" parent="1" source="rxju3QpqZqfiqWb5X_6u-131">
          <mxGeometry width="50" height="50" relative="1" as="geometry">
            <mxPoint x="540" y="820" as="sourcePoint" />
            <mxPoint x="720" y="779" as="targetPoint" />
          </mxGeometry>
        </mxCell>
        <mxCell id="rxju3QpqZqfiqWb5X_6u-167" value="" style="endArrow=none;html=1;rounded=0;fontSize=8;exitX=1;exitY=0.5;exitDx=0;exitDy=0;" edge="1" parent="1" source="rxju3QpqZqfiqWb5X_6u-151">
          <mxGeometry width="50" height="50" relative="1" as="geometry">
            <mxPoint x="670" y="1040" as="sourcePoint" />
            <mxPoint x="720" y="1013" as="targetPoint" />
          </mxGeometry>
        </mxCell>
        <mxCell id="rxju3QpqZqfiqWb5X_6u-168" value="" style="endArrow=none;html=1;rounded=0;fontSize=8;exitX=1;exitY=0.5;exitDx=0;exitDy=0;" edge="1" parent="1" source="rxju3QpqZqfiqWb5X_6u-142">
          <mxGeometry width="50" height="50" relative="1" as="geometry">
            <mxPoint x="600" y="940" as="sourcePoint" />
            <mxPoint x="720" y="877" as="targetPoint" />
          </mxGeometry>
        </mxCell>
        <mxCell id="rxju3QpqZqfiqWb5X_6u-170" value="Confirmation&lt;br&gt;Dialog box" style="rhombus;whiteSpace=wrap;html=1;" vertex="1" parent="1">
          <mxGeometry x="760" y="1093" width="120" height="94" as="geometry" />
        </mxCell>
        <mxCell id="rxju3QpqZqfiqWb5X_6u-172" value="" style="endArrow=classic;html=1;rounded=0;fontSize=8;exitX=0.5;exitY=1;exitDx=0;exitDy=0;entryX=0.5;entryY=0;entryDx=0;entryDy=0;" edge="1" parent="1" source="rxju3QpqZqfiqWb5X_6u-160" target="rxju3QpqZqfiqWb5X_6u-170">
          <mxGeometry width="50" height="50" relative="1" as="geometry">
            <mxPoint x="795" y="1051" as="sourcePoint" />
            <mxPoint x="845" y="1001" as="targetPoint" />
          </mxGeometry>
        </mxCell>
        <mxCell id="rxju3QpqZqfiqWb5X_6u-173" value="" style="endArrow=classic;html=1;rounded=0;fontSize=8;exitX=0;exitY=0.5;exitDx=0;exitDy=0;entryX=1;entryY=0.5;entryDx=0;entryDy=0;" edge="1" parent="1" source="rxju3QpqZqfiqWb5X_6u-170" target="rxju3QpqZqfiqWb5X_6u-80">
          <mxGeometry width="50" height="50" relative="1" as="geometry">
            <mxPoint x="310" y="1070" as="sourcePoint" />
            <mxPoint x="360" y="1020" as="targetPoint" />
          </mxGeometry>
        </mxCell>
        <mxCell id="rxju3QpqZqfiqWb5X_6u-177" value="" style="endArrow=classic;html=1;rounded=0;fontSize=8;exitX=1;exitY=0.5;exitDx=0;exitDy=0;entryX=0;entryY=0.5;entryDx=0;entryDy=0;" edge="1" parent="1" source="rxju3QpqZqfiqWb5X_6u-170" target="rxju3QpqZqfiqWb5X_6u-178">
          <mxGeometry width="50" height="50" relative="1" as="geometry">
            <mxPoint x="310" y="1190" as="sourcePoint" />
            <mxPoint x="980" y="1180" as="targetPoint" />
          </mxGeometry>
        </mxCell>
        <mxCell id="rxju3QpqZqfiqWb5X_6u-178" value="&lt;span style=&quot;font-size: 12px;&quot;&gt;Close&lt;br&gt;Dialog&amp;nbsp;&lt;/span&gt;" style="ellipse;whiteSpace=wrap;html=1;aspect=fixed;fontSize=8;fillColor=#FFFFFF;" vertex="1" parent="1">
          <mxGeometry x="1010" y="1110" width="60" height="60" as="geometry" />
        </mxCell>
        <mxCell id="rxju3QpqZqfiqWb5X_6u-179" value="" style="endArrow=classic;html=1;rounded=0;fontSize=8;exitX=0.5;exitY=0;exitDx=0;exitDy=0;entryX=1;entryY=0.5;entryDx=0;entryDy=0;" edge="1" parent="1" source="rxju3QpqZqfiqWb5X_6u-178" target="rxju3QpqZqfiqWb5X_6u-160">
          <mxGeometry width="50" height="50" relative="1" as="geometry">
            <mxPoint x="820" y="1070" as="sourcePoint" />
            <mxPoint x="870" y="1020" as="targetPoint" />
            <Array as="points">
              <mxPoint x="1040" y="880" />
            </Array>
          </mxGeometry>
        </mxCell>
        <mxCell id="rxju3QpqZqfiqWb5X_6u-180" value="Yes" style="text;html=1;resizable=0;autosize=1;align=center;verticalAlign=middle;points=[];fillColor=none;strokeColor=none;rounded=0;" vertex="1" parent="1">
          <mxGeometry x="720" y="1120" width="30" height="20" as="geometry" />
        </mxCell>
        <mxCell id="rxju3QpqZqfiqWb5X_6u-181" value="No" style="text;html=1;resizable=0;autosize=1;align=center;verticalAlign=middle;points=[];fillColor=none;strokeColor=none;rounded=0;" vertex="1" parent="1">
          <mxGeometry x="890" y="1120" width="30" height="20" as="geometry" />
        </mxCell>
        <mxCell id="rxju3QpqZqfiqWb5X_6u-183" value="Send claim status code in query param" style="text;html=1;resizable=0;autosize=1;align=center;verticalAlign=middle;points=[];fillColor=none;strokeColor=none;rounded=0;" vertex="1" parent="1">
          <mxGeometry x="540" y="1140" width="220" height="20" as="geometry" />
        </mxCell>
        <mxCell id="rxju3QpqZqfiqWb5X_6u-184" value="" style="edgeStyle=none;rounded=0;orthogonalLoop=1;jettySize=auto;html=1;entryX=0.5;entryY=0;entryDx=0;entryDy=0;" edge="1" parent="1" target="rxju3QpqZqfiqWb5X_6u-186">
          <mxGeometry relative="1" as="geometry">
            <mxPoint x="1500" y="439" as="sourcePoint" />
            <Array as="points">
              <mxPoint x="1330" y="439" />
            </Array>
          </mxGeometry>
        </mxCell>
        <mxCell id="rxju3QpqZqfiqWb5X_6u-185" value="" style="edgeStyle=none;rounded=0;orthogonalLoop=1;jettySize=auto;html=1;" edge="1" parent="1" source="rxju3QpqZqfiqWb5X_6u-186" target="rxju3QpqZqfiqWb5X_6u-187">
          <mxGeometry relative="1" as="geometry" />
        </mxCell>
        <mxCell id="rxju3QpqZqfiqWb5X_6u-186" value="&lt;b&gt;Fnol search Form&lt;br&gt;&lt;/b&gt;(krFnolSearch)" style="rounded=0;whiteSpace=wrap;html=1;" vertex="1" parent="1">
          <mxGeometry x="1270" y="459" width="120" height="60" as="geometry" />
        </mxCell>
        <mxCell id="rxju3QpqZqfiqWb5X_6u-237" style="edgeStyle=none;rounded=0;orthogonalLoop=1;jettySize=auto;html=1;exitX=0.5;exitY=1;exitDx=0;exitDy=0;fontSize=12;" edge="1" parent="1" source="rxju3QpqZqfiqWb5X_6u-187">
          <mxGeometry relative="1" as="geometry">
            <mxPoint x="1330" y="670" as="targetPoint" />
          </mxGeometry>
        </mxCell>
        <mxCell id="rxju3QpqZqfiqWb5X_6u-187" value="&lt;b&gt;Pending Fnols&lt;br&gt;&lt;/b&gt;(krFnolSelector)" style="rounded=0;whiteSpace=wrap;html=1;" vertex="1" parent="1">
          <mxGeometry x="1270" y="569" width="120" height="61" as="geometry" />
        </mxCell>
        <mxCell id="rxju3QpqZqfiqWb5X_6u-188" value="" style="endArrow=classic;html=1;rounded=0;exitX=0;exitY=0.5;exitDx=0;exitDy=0;entryX=0.5;entryY=0;entryDx=0;entryDy=0;" edge="1" parent="1" source="rxju3QpqZqfiqWb5X_6u-186" target="rxju3QpqZqfiqWb5X_6u-191">
          <mxGeometry width="50" height="50" relative="1" as="geometry">
            <mxPoint x="1470" y="589" as="sourcePoint" />
            <mxPoint x="1140" y="539" as="targetPoint" />
            <Array as="points">
              <mxPoint x="1155" y="489" />
            </Array>
          </mxGeometry>
        </mxCell>
        <mxCell id="rxju3QpqZqfiqWb5X_6u-189" value="" style="endArrow=classic;html=1;rounded=0;entryX=0;entryY=0.5;entryDx=0;entryDy=0;exitX=0.5;exitY=1;exitDx=0;exitDy=0;" edge="1" parent="1" source="rxju3QpqZqfiqWb5X_6u-191" target="rxju3QpqZqfiqWb5X_6u-187">
          <mxGeometry width="50" height="50" relative="1" as="geometry">
            <mxPoint x="1140.9999999999998" y="581.0000000000001" as="sourcePoint" />
            <mxPoint x="1520" y="539" as="targetPoint" />
            <Array as="points">
              <mxPoint x="1155" y="599" />
            </Array>
          </mxGeometry>
        </mxCell>
        <mxCell id="rxju3QpqZqfiqWb5X_6u-190" value="" style="group" vertex="1" connectable="0" parent="1">
          <mxGeometry x="1090" y="539" width="130" height="35" as="geometry" />
        </mxCell>
        <mxCell id="rxju3QpqZqfiqWb5X_6u-191" value="&amp;nbsp; &amp;nbsp; &amp;nbsp; &amp;nbsp; &amp;nbsp; Search API" style="shape=parallelogram;perimeter=parallelogramPerimeter;whiteSpace=wrap;html=1;fixedSize=1;" vertex="1" parent="rxju3QpqZqfiqWb5X_6u-190">
          <mxGeometry width="130" height="35" as="geometry" />
        </mxCell>
        <mxCell id="rxju3QpqZqfiqWb5X_6u-192" value="" style="shape=image;html=1;verticalAlign=top;verticalLabelPosition=bottom;labelBackgroundColor=#ffffff;imageAspect=0;aspect=fixed;image=https://cdn1.iconfinder.com/data/icons/seo-and-web-development-6/32/development_setting_gear_cogwheel-71-128.png" vertex="1" parent="rxju3QpqZqfiqWb5X_6u-190">
          <mxGeometry x="24.5" y="7.25" width="21.5" height="21.5" as="geometry" />
        </mxCell>
        <mxCell id="rxju3QpqZqfiqWb5X_6u-193" value="&lt;b&gt;Fnol Status Dashboard&lt;br&gt;&lt;/b&gt;(krFnolSearch)" style="rounded=0;whiteSpace=wrap;html=1;" vertex="1" parent="1">
          <mxGeometry x="1640" y="459" width="120" height="60" as="geometry" />
        </mxCell>
        <mxCell id="rxju3QpqZqfiqWb5X_6u-197" value="" style="endArrow=none;html=1;rounded=0;fontSize=12;exitX=0.5;exitY=1;exitDx=0;exitDy=0;" edge="1" parent="1" source="nLTq_c6TepUbZyyU9ZvA-28">
          <mxGeometry width="50" height="50" relative="1" as="geometry">
            <mxPoint x="1870" y="349" as="sourcePoint" />
            <mxPoint x="1500" y="439" as="targetPoint" />
          </mxGeometry>
        </mxCell>
        <mxCell id="rxju3QpqZqfiqWb5X_6u-199" value="" style="endArrow=none;html=1;rounded=0;fontSize=12;" edge="1" parent="1">
          <mxGeometry width="50" height="50" relative="1" as="geometry">
            <mxPoint x="1500" y="439" as="sourcePoint" />
            <mxPoint x="1700" y="439" as="targetPoint" />
          </mxGeometry>
        </mxCell>
        <mxCell id="rxju3QpqZqfiqWb5X_6u-200" value="" style="endArrow=classic;html=1;rounded=0;fontSize=12;entryX=0.5;entryY=0;entryDx=0;entryDy=0;" edge="1" parent="1" target="rxju3QpqZqfiqWb5X_6u-193">
          <mxGeometry width="50" height="50" relative="1" as="geometry">
            <mxPoint x="1700" y="439" as="sourcePoint" />
            <mxPoint x="1570" y="449" as="targetPoint" />
          </mxGeometry>
        </mxCell>
        <mxCell id="rxju3QpqZqfiqWb5X_6u-202" value="&amp;nbsp; &amp;nbsp; &amp;nbsp; &amp;nbsp; &amp;nbsp; Operation members API" style="shape=parallelogram;perimeter=parallelogramPerimeter;whiteSpace=wrap;html=1;fixedSize=1;" vertex="1" parent="1">
          <mxGeometry x="1030" y="182" width="200" height="35" as="geometry" />
        </mxCell>
        <mxCell id="rxju3QpqZqfiqWb5X_6u-203" value="" style="shape=image;html=1;verticalAlign=top;verticalLabelPosition=bottom;labelBackgroundColor=#ffffff;imageAspect=0;aspect=fixed;image=https://cdn1.iconfinder.com/data/icons/seo-and-web-development-6/32/development_setting_gear_cogwheel-71-128.png" vertex="1" parent="1">
          <mxGeometry x="1054.5" y="189.25" width="21.5" height="21.5" as="geometry" />
        </mxCell>
        <mxCell id="rxju3QpqZqfiqWb5X_6u-204" value="&amp;nbsp; &amp;nbsp; &amp;nbsp; &amp;nbsp; &amp;nbsp; Roles {User Id } API" style="shape=parallelogram;perimeter=parallelogramPerimeter;whiteSpace=wrap;html=1;fixedSize=1;" vertex="1" parent="1">
          <mxGeometry x="1220" y="182" width="200" height="35" as="geometry" />
        </mxCell>
        <mxCell id="rxju3QpqZqfiqWb5X_6u-205" value="" style="shape=image;html=1;verticalAlign=top;verticalLabelPosition=bottom;labelBackgroundColor=#ffffff;imageAspect=0;aspect=fixed;image=https://cdn1.iconfinder.com/data/icons/seo-and-web-development-6/32/development_setting_gear_cogwheel-71-128.png" vertex="1" parent="1">
          <mxGeometry x="1244.5" y="189.25" width="21.5" height="21.5" as="geometry" />
        </mxCell>
        <mxCell id="rxju3QpqZqfiqWb5X_6u-206" value="Admin &lt;br&gt;Role" style="rhombus;whiteSpace=wrap;html=1;" vertex="1" parent="1">
          <mxGeometry x="1460" y="240" width="80" height="50" as="geometry" />
        </mxCell>
        <mxCell id="rxju3QpqZqfiqWb5X_6u-208" value="Yes" style="text;html=1;resizable=0;autosize=1;align=center;verticalAlign=middle;points=[];fillColor=none;strokeColor=none;rounded=0;" vertex="1" parent="1">
          <mxGeometry x="1470" y="290" width="30" height="20" as="geometry" />
        </mxCell>
        <mxCell id="rxju3QpqZqfiqWb5X_6u-212" value="Exit Admin Flow" style="ellipse;whiteSpace=wrap;html=1;aspect=fixed;fontSize=12;fillColor=#FFFFFF;" vertex="1" parent="1">
          <mxGeometry x="1660" y="237.5" width="55" height="55" as="geometry" />
        </mxCell>
        <mxCell id="rxju3QpqZqfiqWb5X_6u-213" value="" style="endArrow=classic;html=1;rounded=0;fontSize=12;exitX=1;exitY=0.5;exitDx=0;exitDy=0;entryX=0;entryY=0.5;entryDx=0;entryDy=0;" edge="1" parent="1" source="rxju3QpqZqfiqWb5X_6u-206" target="rxju3QpqZqfiqWb5X_6u-212">
          <mxGeometry width="50" height="50" relative="1" as="geometry">
            <mxPoint x="1340" y="460" as="sourcePoint" />
            <mxPoint x="1390" y="410" as="targetPoint" />
          </mxGeometry>
        </mxCell>
        <mxCell id="rxju3QpqZqfiqWb5X_6u-215" value="No" style="text;html=1;resizable=0;autosize=1;align=center;verticalAlign=middle;points=[];fillColor=none;strokeColor=none;rounded=0;" vertex="1" parent="1">
          <mxGeometry x="1545" y="244" width="30" height="20" as="geometry" />
        </mxCell>
        <mxCell id="rxju3QpqZqfiqWb5X_6u-225" style="edgeStyle=none;rounded=0;orthogonalLoop=1;jettySize=auto;html=1;exitX=0.5;exitY=1;exitDx=0;exitDy=0;entryX=0.5;entryY=0;entryDx=0;entryDy=0;fontSize=12;" edge="1" parent="1" source="rxju3QpqZqfiqWb5X_6u-216" target="rxju3QpqZqfiqWb5X_6u-223">
          <mxGeometry relative="1" as="geometry" />
        </mxCell>
        <mxCell id="rxju3QpqZqfiqWb5X_6u-216" value="&lt;b&gt;Fnol Summary&lt;br&gt;&lt;/b&gt;(krFnolSelector)" style="rounded=0;whiteSpace=wrap;html=1;" vertex="1" parent="1">
          <mxGeometry x="1638" y="569" width="120" height="60" as="geometry" />
        </mxCell>
        <mxCell id="rxju3QpqZqfiqWb5X_6u-217" value="" style="edgeStyle=none;rounded=0;orthogonalLoop=1;jettySize=auto;html=1;" edge="1" parent="1">
          <mxGeometry relative="1" as="geometry">
            <mxPoint x="1697.41" y="519" as="sourcePoint" />
            <mxPoint x="1697.41" y="569" as="targetPoint" />
          </mxGeometry>
        </mxCell>
        <mxCell id="rxju3QpqZqfiqWb5X_6u-218" value="" style="group" vertex="1" connectable="0" parent="1">
          <mxGeometry x="1830" y="522.5" width="140" height="35" as="geometry" />
        </mxCell>
        <mxCell id="rxju3QpqZqfiqWb5X_6u-219" value="&amp;nbsp; &amp;nbsp; &amp;nbsp; &amp;nbsp; &amp;nbsp; summary API" style="shape=parallelogram;perimeter=parallelogramPerimeter;whiteSpace=wrap;html=1;fixedSize=1;" vertex="1" parent="rxju3QpqZqfiqWb5X_6u-218">
          <mxGeometry width="140" height="35" as="geometry" />
        </mxCell>
        <mxCell id="rxju3QpqZqfiqWb5X_6u-220" value="" style="shape=image;html=1;verticalAlign=top;verticalLabelPosition=bottom;labelBackgroundColor=#ffffff;imageAspect=0;aspect=fixed;image=https://cdn1.iconfinder.com/data/icons/seo-and-web-development-6/32/development_setting_gear_cogwheel-71-128.png" vertex="1" parent="rxju3QpqZqfiqWb5X_6u-218">
          <mxGeometry x="24.5" y="7.25" width="21.5" height="21.5" as="geometry" />
        </mxCell>
        <mxCell id="rxju3QpqZqfiqWb5X_6u-221" value="" style="endArrow=classic;html=1;rounded=0;exitX=1;exitY=0.5;exitDx=0;exitDy=0;entryX=0.5;entryY=0;entryDx=0;entryDy=0;" edge="1" parent="1" source="rxju3QpqZqfiqWb5X_6u-193">
          <mxGeometry width="50" height="50" relative="1" as="geometry">
            <mxPoint x="2015" y="472.5" as="sourcePoint" />
            <mxPoint x="1900" y="522.5" as="targetPoint" />
            <Array as="points">
              <mxPoint x="1900" y="489" />
            </Array>
          </mxGeometry>
        </mxCell>
        <mxCell id="rxju3QpqZqfiqWb5X_6u-222" value="" style="endArrow=classic;html=1;rounded=0;entryX=1;entryY=0.5;entryDx=0;entryDy=0;exitX=0.5;exitY=1;exitDx=0;exitDy=0;" edge="1" parent="1" source="rxju3QpqZqfiqWb5X_6u-219" target="rxju3QpqZqfiqWb5X_6u-216">
          <mxGeometry width="50" height="50" relative="1" as="geometry">
            <mxPoint x="1900" y="560" as="sourcePoint" />
            <mxPoint x="1945" y="670" as="targetPoint" />
            <Array as="points">
              <mxPoint x="1900" y="600" />
            </Array>
          </mxGeometry>
        </mxCell>
        <mxCell id="rxju3QpqZqfiqWb5X_6u-223" value="Export Excel" style="rounded=1;whiteSpace=wrap;html=1;arcSize=22;" vertex="1" parent="1">
          <mxGeometry x="1658" y="680" width="80" height="40" as="geometry" />
        </mxCell>
        <mxCell id="rxju3QpqZqfiqWb5X_6u-226" value="Export Excel" style="rounded=1;whiteSpace=wrap;html=1;arcSize=22;" vertex="1" parent="1">
          <mxGeometry x="1164.5" y="670" width="80" height="40" as="geometry" />
        </mxCell>
        <mxCell id="rxju3QpqZqfiqWb5X_6u-239" style="edgeStyle=none;rounded=0;orthogonalLoop=1;jettySize=auto;html=1;exitX=0.5;exitY=1;exitDx=0;exitDy=0;fontSize=12;" edge="1" parent="1" source="rxju3QpqZqfiqWb5X_6u-227">
          <mxGeometry relative="1" as="geometry">
            <mxPoint x="1330" y="740" as="targetPoint" />
          </mxGeometry>
        </mxCell>
        <mxCell id="rxju3QpqZqfiqWb5X_6u-227" value="Assign" style="rounded=1;whiteSpace=wrap;html=1;arcSize=22;" vertex="1" parent="1">
          <mxGeometry x="1290" y="670" width="80" height="40" as="geometry" />
        </mxCell>
        <mxCell id="rxju3QpqZqfiqWb5X_6u-228" value="&lt;font style=&quot;font-size: 12px;&quot;&gt;&lt;b&gt;Reassign Modal&lt;/b&gt;&lt;br&gt;Select &lt;br&gt;- Kickin Member&lt;br&gt;- Reassign Reason&lt;/font&gt;" style="rounded=0;whiteSpace=wrap;html=1;fontSize=8;fillColor=#FFFFFF;" vertex="1" parent="1">
          <mxGeometry x="1266.5" y="810" width="125" height="80" as="geometry" />
        </mxCell>
        <mxCell id="rxju3QpqZqfiqWb5X_6u-229" value="Cancel" style="rounded=1;whiteSpace=wrap;html=1;arcSize=22;" vertex="1" parent="1">
          <mxGeometry x="1339" y="920" width="80" height="40" as="geometry" />
        </mxCell>
        <mxCell id="rxju3QpqZqfiqWb5X_6u-230" value="Submit" style="rounded=1;whiteSpace=wrap;html=1;arcSize=22;" vertex="1" parent="1">
          <mxGeometry x="1239" y="920" width="80" height="40" as="geometry" />
        </mxCell>
        <mxCell id="rxju3QpqZqfiqWb5X_6u-232" value="&amp;nbsp; &amp;nbsp; &amp;nbsp; &amp;nbsp; &amp;nbsp; Reassign API" style="shape=parallelogram;perimeter=parallelogramPerimeter;whiteSpace=wrap;html=1;fixedSize=1;" vertex="1" parent="1">
          <mxGeometry x="1203.25" y="1001.5" width="150" height="35" as="geometry" />
        </mxCell>
        <mxCell id="rxju3QpqZqfiqWb5X_6u-233" value="" style="shape=image;html=1;verticalAlign=top;verticalLabelPosition=bottom;labelBackgroundColor=#ffffff;imageAspect=0;aspect=fixed;image=https://cdn1.iconfinder.com/data/icons/seo-and-web-development-6/32/development_setting_gear_cogwheel-71-128.png" vertex="1" parent="1">
          <mxGeometry x="1228" y="1008.25" width="21.5" height="21.5" as="geometry" />
        </mxCell>
        <mxCell id="rxju3QpqZqfiqWb5X_6u-240" style="edgeStyle=none;rounded=0;orthogonalLoop=1;jettySize=auto;html=1;exitX=0.5;exitY=1;exitDx=0;exitDy=0;entryX=0.5;entryY=0;entryDx=0;entryDy=0;fontSize=12;" edge="1" parent="1" source="rxju3QpqZqfiqWb5X_6u-234" target="rxju3QpqZqfiqWb5X_6u-228">
          <mxGeometry relative="1" as="geometry" />
        </mxCell>
        <mxCell id="rxju3QpqZqfiqWb5X_6u-234" value="&amp;nbsp; &amp;nbsp; &amp;nbsp; &amp;nbsp; &amp;nbsp; Operational&amp;nbsp; &amp;nbsp; &amp;nbsp; &amp;nbsp; &amp;nbsp; &amp;nbsp;Member API" style="shape=parallelogram;perimeter=parallelogramPerimeter;whiteSpace=wrap;html=1;fixedSize=1;" vertex="1" parent="1">
          <mxGeometry x="1242" y="742" width="174" height="35" as="geometry" />
        </mxCell>
        <mxCell id="rxju3QpqZqfiqWb5X_6u-235" value="" style="shape=image;html=1;verticalAlign=top;verticalLabelPosition=bottom;labelBackgroundColor=#ffffff;imageAspect=0;aspect=fixed;image=https://cdn1.iconfinder.com/data/icons/seo-and-web-development-6/32/development_setting_gear_cogwheel-71-128.png" vertex="1" parent="1">
          <mxGeometry x="1267.5" y="748.25" width="21.5" height="21.5" as="geometry" />
        </mxCell>
        <mxCell id="rxju3QpqZqfiqWb5X_6u-236" value="&lt;span style=&quot;font-size: 12px;&quot;&gt;&lt;b&gt;Reassign Success Message&lt;/b&gt;&lt;/span&gt;" style="rounded=0;whiteSpace=wrap;html=1;fontSize=8;fillColor=#FFFFFF;" vertex="1" parent="1">
          <mxGeometry x="1213.25" y="1080" width="140" height="50" as="geometry" />
        </mxCell>
        <mxCell id="rxju3QpqZqfiqWb5X_6u-241" value="" style="endArrow=classic;html=1;rounded=0;fontSize=12;exitX=0.5;exitY=1;exitDx=0;exitDy=0;" edge="1" parent="1" source="rxju3QpqZqfiqWb5X_6u-228">
          <mxGeometry width="50" height="50" relative="1" as="geometry">
            <mxPoint x="1230" y="970" as="sourcePoint" />
            <mxPoint x="1280" y="920" as="targetPoint" />
          </mxGeometry>
        </mxCell>
        <mxCell id="rxju3QpqZqfiqWb5X_6u-242" value="" style="endArrow=classic;html=1;rounded=0;fontSize=12;entryX=0.5;entryY=0;entryDx=0;entryDy=0;exitX=0.5;exitY=1;exitDx=0;exitDy=0;" edge="1" parent="1" source="rxju3QpqZqfiqWb5X_6u-228" target="rxju3QpqZqfiqWb5X_6u-229">
          <mxGeometry width="50" height="50" relative="1" as="geometry">
            <mxPoint x="1360" y="910" as="sourcePoint" />
            <mxPoint x="1280" y="920" as="targetPoint" />
          </mxGeometry>
        </mxCell>
        <mxCell id="rxju3QpqZqfiqWb5X_6u-243" value="" style="endArrow=classic;html=1;rounded=0;fontSize=12;exitX=0.5;exitY=1;exitDx=0;exitDy=0;entryX=0.5;entryY=0;entryDx=0;entryDy=0;" edge="1" parent="1" source="rxju3QpqZqfiqWb5X_6u-230" target="rxju3QpqZqfiqWb5X_6u-232">
          <mxGeometry width="50" height="50" relative="1" as="geometry">
            <mxPoint x="1230" y="970" as="sourcePoint" />
            <mxPoint x="1280" y="920" as="targetPoint" />
          </mxGeometry>
        </mxCell>
        <mxCell id="rxju3QpqZqfiqWb5X_6u-244" value="" style="endArrow=classic;html=1;rounded=0;fontSize=12;exitX=0.5;exitY=1;exitDx=0;exitDy=0;" edge="1" parent="1" source="rxju3QpqZqfiqWb5X_6u-232">
          <mxGeometry width="50" height="50" relative="1" as="geometry">
            <mxPoint x="1340" y="1060" as="sourcePoint" />
            <mxPoint x="1278" y="1080" as="targetPoint" />
          </mxGeometry>
        </mxCell>
        <mxCell id="rxju3QpqZqfiqWb5X_6u-248" value="" style="endArrow=classic;html=1;rounded=0;fontSize=12;entryX=1;entryY=0.5;entryDx=0;entryDy=0;" edge="1" parent="1" target="rxju3QpqZqfiqWb5X_6u-187">
          <mxGeometry width="50" height="50" relative="1" as="geometry">
            <mxPoint x="1440" y="600" as="sourcePoint" />
            <mxPoint x="1510" y="611" as="targetPoint" />
          </mxGeometry>
        </mxCell>
        <mxCell id="rxju3QpqZqfiqWb5X_6u-250" value="" style="endArrow=none;html=1;rounded=0;fontSize=12;exitX=1;exitY=0.5;exitDx=0;exitDy=0;" edge="1" parent="1" source="rxju3QpqZqfiqWb5X_6u-229">
          <mxGeometry width="50" height="50" relative="1" as="geometry">
            <mxPoint x="1440" y="940" as="sourcePoint" />
            <mxPoint x="1440" y="600" as="targetPoint" />
            <Array as="points">
              <mxPoint x="1440" y="940" />
            </Array>
          </mxGeometry>
        </mxCell>
        <mxCell id="rxju3QpqZqfiqWb5X_6u-252" value="" style="endArrow=classic;html=1;rounded=0;fontSize=12;entryX=1;entryY=0.5;entryDx=0;entryDy=0;exitX=1;exitY=0.5;exitDx=0;exitDy=0;" edge="1" parent="1" source="rxju3QpqZqfiqWb5X_6u-236" target="rxju3QpqZqfiqWb5X_6u-186">
          <mxGeometry width="50" height="50" relative="1" as="geometry">
            <mxPoint x="1520" y="489" as="sourcePoint" />
            <mxPoint x="1230" y="600" as="targetPoint" />
            <Array as="points">
              <mxPoint x="1520" y="1105" />
              <mxPoint x="1520" y="489" />
            </Array>
          </mxGeometry>
        </mxCell>
        <mxCell id="rxju3QpqZqfiqWb5X_6u-253" value="Select Fnols" style="text;html=1;resizable=0;autosize=1;align=center;verticalAlign=middle;points=[];fillColor=none;strokeColor=none;rounded=0;" vertex="1" parent="1">
          <mxGeometry x="1334" y="639" width="80" height="20" as="geometry" />
        </mxCell>
        <mxCell id="rxju3QpqZqfiqWb5X_6u-254" value="" style="endArrow=classic;html=1;rounded=0;fontSize=12;entryX=0.5;entryY=0;entryDx=0;entryDy=0;" edge="1" parent="1" target="rxju3QpqZqfiqWb5X_6u-226">
          <mxGeometry width="50" height="50" relative="1" as="geometry">
            <mxPoint x="1330" y="630" as="sourcePoint" />
            <mxPoint x="1340" y="730" as="targetPoint" />
          </mxGeometry>
        </mxCell>
        <mxCell id="rxju3QpqZqfiqWb5X_6u-256" value="All Fnols" style="text;html=1;resizable=0;autosize=1;align=center;verticalAlign=middle;points=[];fillColor=none;strokeColor=none;rounded=0;" vertex="1" parent="1">
          <mxGeometry x="1190" y="639" width="60" height="20" as="geometry" />
        </mxCell>
        <mxCell id="rxju3QpqZqfiqWb5X_6u-257" value="All Listed Fnol Summary" style="text;html=1;resizable=0;autosize=1;align=center;verticalAlign=middle;points=[];fillColor=none;strokeColor=none;rounded=0;" vertex="1" parent="1">
          <mxGeometry x="1700" y="641" width="150" height="20" as="geometry" />
        </mxCell>
      </root>
    </mxGraphModel>
  </diagram>
  <diagram id="mD6MLrBSzIn9jQ7k-BM2" name="Page-2">
    <mxGraphModel dx="1079" dy="468" grid="1" gridSize="10" guides="1" tooltips="1" connect="1" arrows="1" fold="1" page="1" pageScale="1" pageWidth="850" pageHeight="1100" math="0" shadow="0">
      <root>
        <mxCell id="0" />
        <mxCell id="1" parent="0" />
      </root>
    </mxGraphModel>
  </diagram>
</mxfile>
